<?xml version="1.0" encoding="UTF-8" standalone="no"?>
<svg
   xmlns:dc="http://purl.org/dc/elements/1.1/"
   xmlns:cc="http://creativecommons.org/ns#"
   xmlns:rdf="http://www.w3.org/1999/02/22-rdf-syntax-ns#"
   xmlns:svg="http://www.w3.org/2000/svg"
   xmlns="http://www.w3.org/2000/svg"
   xmlns:sodipodi="http://sodipodi.sourceforge.net/DTD/sodipodi-0.dtd"
   xmlns:inkscape="http://www.inkscape.org/namespaces/inkscape"
   version="1.1"
   x="0px"
   y="0px"
   viewBox="0 0 89.699997 83.800003"
   enable-background="new 0 0 100 100"
   xml:space="preserve"
   id="svg3413"
   inkscape:version="0.91 r13725"
   sodipodi:docname="network.svg"
   width="89.699997"
   height="83.800003"><metadata
     id="metadata3425"><rdf:RDF><cc:Work
         rdf:about=""><dc:format>image/svg+xml</dc:format><dc:type
           rdf:resource="http://purl.org/dc/dcmitype/StillImage" /><dc:title></dc:title></cc:Work></rdf:RDF></metadata><defs
     id="defs3423" /><sodipodi:namedview
     pagecolor="#ffffff"
     bordercolor="#666666"
     borderopacity="1"
     objecttolerance="10"
     gridtolerance="10"
     guidetolerance="10"
     inkscape:pageopacity="0"
     inkscape:pageshadow="2"
     inkscape:window-width="640"
     inkscape:window-height="480"
     id="namedview3421"
     showgrid="false"
     fit-margin-top="0"
     fit-margin-left="0"
     fit-margin-right="0"
     fit-margin-bottom="0"
     inkscape:zoom="1.888"
     inkscape:cx="44.9"
     inkscape:cy="30.2"
     inkscape:window-x="41"
     inkscape:window-y="24"
     inkscape:window-maximized="0"
     inkscape:current-layer="svg3413" /><path
     d="m 84.1,55.4 c -2.4,0 -4.4,1.5 -5.2,3.5 l -26,-5.2 c 0,-0.2 0,-0.3 0,-0.5 0,-0.7 -0.1,-1.4 -0.3,-2.1 l 14,-6.1 c 1.4,2.3 3.9,3.9 6.8,3.9 4.4,0 8,-3.6 8,-8 0,-3.2 -1.9,-6 -4.7,-7.2 l 1.9,-6.5 c 0.2,0 0.4,0.1 0.6,0.1 1,0 2,-0.4 2.7,-1.1 1.6,-1.5 1.7,-4 0.2,-5.6 -0.7,-0.8 -1.8,-1.2 -2.9,-1.2 -1,0 -2,0.4 -2.7,1.1 -0.8,0.7 -1.2,1.7 -1.2,2.8 0,1.1 0.3,2.1 1.1,2.8 0.4,0.4 0.8,0.7 1.3,0.9 l -1.8,6.4 C 75.1,33.2 74.3,33 73.5,33 c -2.2,0 -4.2,0.9 -5.6,2.3 l -2,-2 c 1.7,-2.1 1.7,-5.2 -0.2,-7.2 -1,-1.1 -2.5,-1.7 -4,-1.7 -1.4,0 -2.7,0.5 -3.7,1.5 -0.6,0.6 -1.1,1.3 -1.4,2.1 L 48.2,26.6 49.3,10.8 C 52,10.5 54.1,8.2 54.1,5.4 54.1,2.4 51.7,0 48.7,0 c -3,0 -5.4,2.4 -5.4,5.4 0,2.5 1.7,4.7 4.1,5.3 L 46.3,26.3 32.9,23.9 c -0.1,-0.9 -0.4,-1.7 -1,-2.4 -0.7,-0.8 -1.8,-1.2 -2.9,-1.2 -0.8,0 -1.6,0.3 -2.3,0.7 l -6.6,-7.2 c 0.6,-0.7 1,-1.6 1,-2.5 0,-2.2 -1.8,-4 -4,-4 -2.2,0 -4,1.8 -4,4 0,2.2 1.8,4 4,4 0.9,0 1.6,-0.3 2.3,-0.7 l 6.6,7.2 c -1.2,1.5 -1.3,3.6 0,5.1 l -6.1,9.8 C 19,36.3 18,36.1 17,36.1 c -1.8,0 -3.6,0.7 -4.9,1.9 -0.3,0.3 -0.6,0.6 -0.8,0.9 L 7.6,36.5 C 7.9,36 8,35.4 8,34.8 c 0,-2.2 -1.8,-4 -4,-4 -2.2,0 -4,1.8 -4,4 0,2.2 1.8,4 4,4 1.2,0 2.3,-0.6 3,-1.4 l 3.7,2.4 c -1.5,2.6 -1.1,6.1 1,8.4 0.3,0.3 0.5,0.5 0.8,0.7 L 9.3,53.4 C 8.6,53.1 7.8,52.9 7,52.9 c -3,0 -5.5,2.4 -5.5,5.5 0,3.1 2.4,5.5 5.5,5.5 3.1,0 5.5,-2.4 5.5,-5.5 0,-1.4 -0.6,-2.8 -1.5,-3.7 l 3.4,-4.6 c 0.8,0.3 1.7,0.5 2.7,0.5 1.2,0 2.4,-0.3 3.4,-0.9 L 28,61.1 c -0.9,0.7 -1.4,1.8 -1.4,3 0,2.2 1.8,4 4,4 2.2,0 4,-1.8 4,-4 0,-2.2 -1.8,-4 -4,-4 -0.6,0 -1.2,0.2 -1.7,0.4 L 21.4,48.9 c 0.2,-0.2 0.4,-0.3 0.6,-0.5 2.9,-2.7 3,-7.2 0.3,-10.1 -0.2,-0.2 -0.4,-0.4 -0.7,-0.6 l 6,-9.8 c 0.4,0.2 0.9,0.3 1.3,0.3 1,0 2,-0.4 2.7,-1.1 0.4,-0.4 0.7,-0.8 0.9,-1.2 l 13.4,2.3 -1,17.4 c -1.6,0.1 -3,0.7 -4.2,1.6 l -1.9,-2.1 c 0.6,-0.7 1,-1.6 1,-2.6 0,-2.2 -1.8,-4 -4,-4 -2.2,0 -4,1.8 -4,4 0,2.2 1.8,4 4,4 0.8,0 1.6,-0.3 2.3,-0.7 l 1.9,2.1 c -1.3,1.4 -2.1,3.2 -2.1,5.3 0,4.1 3.2,7.4 7.2,7.6 L 45.4,73 c -2.7,0.3 -4.8,2.6 -4.8,5.4 0,3 2.4,5.4 5.4,5.4 3,0 5.4,-2.4 5.4,-5.4 0,-2.9 -2.2,-5.2 -5.1,-5.4 L 46,60.8 c 3,-0.3 5.5,-2.3 6.5,-5.1 l 26,5.2 c 0,0 0,0.1 0,0.1 0,3.1 2.5,5.6 5.6,5.6 3.1,0 5.6,-2.5 5.6,-5.6 0,-3.1 -2.6,-5.6 -5.6,-5.6 z M 77.9,21.8 c 0.4,-0.3 0.8,-0.5 1.3,-0.5 0.5,0 1.1,0.2 1.4,0.6 0.7,0.8 0.7,2 -0.1,2.8 -0.8,0.7 -2.1,0.7 -2.8,-0.1 -0.4,-0.4 -0.5,-0.9 -0.5,-1.4 0,-0.5 0.3,-1.1 0.7,-1.4 z m -73.8,15 c -1.1,0 -2,-0.9 -2,-2 0,-1.1 0.9,-2 2,-2 1.1,0 2,0.9 2,2 0,1.1 -0.9,2 -2,2 z m 3,24.9 c -1.9,0 -3.5,-1.6 -3.5,-3.5 0,-1.9 1.6,-3.5 3.5,-3.5 1.9,0 3.5,1.6 3.5,3.5 0,1.9 -1.6,3.5 -3.5,3.5 z m 25.4,2.5 c 0,1.1 -0.9,2 -2,2 -1.1,0 -2,-0.9 -2,-2 0,-1.1 0.9,-2 2,-2 1.1,0 2,0.9 2,2 z M 20.6,47 c -1,0.9 -2.2,1.4 -3.5,1.4 -1.4,0 -2.8,-0.6 -3.8,-1.6 -1.9,-2.1 -1.8,-5.3 0.2,-7.3 1,-0.9 2.2,-1.4 3.5,-1.4 1.4,0 2.8,0.6 3.8,1.6 2,2.1 1.9,5.4 -0.2,7.3 z M 17.1,13.2 c -1.1,0 -2,-0.9 -2,-2 0,-1.1 0.9,-2 2,-2 1.1,0 2,0.9 2,2 -0.1,1.1 -0.9,2 -2,2 z m 13.3,12.5 c -0.8,0.7 -2.1,0.7 -2.8,-0.1 -0.7,-0.8 -0.7,-2 0.1,-2.8 0.4,-0.3 0.8,-0.5 1.3,-0.5 0.5,0 1.1,0.2 1.4,0.6 0.8,0.8 0.7,2 0,2.8 z m 43,9.2 c 3.3,0 6,2.7 6,6 0,3.3 -2.7,6 -6,6 -3.3,0 -6,-2.7 -6,-6 0,-3.3 2.7,-6 6,-6 z M 59.3,27.3 c 0.6,-0.6 1.5,-0.9 2.4,-0.9 1,0 1.9,0.4 2.5,1.1 1.3,1.4 1.2,3.6 -0.2,4.9 -0.6,0.6 -1.5,0.9 -2.4,0.9 -1,0 -1.9,-0.4 -2.5,-1.1 -1.3,-1.5 -1.2,-3.6 0.2,-4.9 z m -3.1,2.6 c 0,1.3 0.5,2.6 1.5,3.6 1,1.1 2.5,1.7 4,1.7 1.3,0 2.5,-0.5 3.5,-1.3 l 2,2 c -1,1.3 -1.7,3 -1.7,4.9 0,0.8 0.1,1.5 0.3,2.3 l -14,6.1 c -1.1,-1.8 -2.9,-3.1 -5,-3.5 L 48,28.4 56.2,29.9 Z M 45.1,5.2 c 0,-1.9 1.5,-3.4 3.4,-3.4 1.9,0 3.4,1.5 3.4,3.4 0,1.9 -1.5,3.4 -3.4,3.4 -1.9,0 -3.4,-1.5 -3.4,-3.4 z m -9.3,39.3 c -1.1,0 -2,-0.9 -2,-2 0,-1.1 0.9,-2 2,-2 1.1,0 2,0.9 2,2 0,1.1 -0.9,2 -2,2 z m 13.6,33.9 c 0,1.9 -1.5,3.4 -3.4,3.4 -1.9,0 -3.4,-1.5 -3.4,-3.4 0,-1.9 1.5,-3.4 3.4,-3.4 1.9,0 3.4,1.5 3.4,3.4 z m -4,-19.7 c -3.1,0 -5.6,-2.5 -5.6,-5.6 0,-3.1 2.5,-5.6 5.6,-5.6 3.1,0 5.5,2.6 5.5,5.7 0,3.1 -2.5,5.5 -5.5,5.5 z m 38.7,5.8 c -2,0 -3.6,-1.6 -3.6,-3.6 0,-2 1.6,-3.6 3.6,-3.6 2,0 3.6,1.6 3.6,3.6 0,2 -1.7,3.6 -3.6,3.6 z"
     id="path3415"
     inkscape:connector-curvature="0" /></svg>