<?xml version="1.0" encoding="UTF-8" standalone="no"?>
<svg
   xmlns:dc="http://purl.org/dc/elements/1.1/"
   xmlns:cc="http://creativecommons.org/ns#"
   xmlns:rdf="http://www.w3.org/1999/02/22-rdf-syntax-ns#"
   xmlns:svg="http://www.w3.org/2000/svg"
   xmlns="http://www.w3.org/2000/svg"
   xmlns:sodipodi="http://sodipodi.sourceforge.net/DTD/sodipodi-0.dtd"
   xmlns:inkscape="http://www.inkscape.org/namespaces/inkscape"
   version="1.1"
   x="0px"
   y="0px"
   viewBox="0 0 89.5261 87.956253"
   enable-background="new 0 0 100 100"
   xml:space="preserve"
   id="svg2"
   inkscape:version="0.91 r13725"
   sodipodi:docname="privacy.svg"
   width="89.5261"
   height="87.956253"><metadata
     id="metadata14"><rdf:RDF><cc:Work
         rdf:about=""><dc:format>image/svg+xml</dc:format><dc:type
           rdf:resource="http://purl.org/dc/dcmitype/StillImage" /><dc:title></dc:title></cc:Work></rdf:RDF></metadata><defs
     id="defs12" /><sodipodi:namedview
     pagecolor="#ffffff"
     bordercolor="#666666"
     borderopacity="1"
     objecttolerance="10"
     gridtolerance="10"
     guidetolerance="10"
     inkscape:pageopacity="0"
     inkscape:pageshadow="2"
     inkscape:window-width="1325"
     inkscape:window-height="744"
     id="namedview10"
     showgrid="false"
     fit-margin-top="0"
     fit-margin-left="0"
     fit-margin-right="0"
     fit-margin-bottom="0"
     inkscape:zoom="1.888"
     inkscape:cx="44.738051"
     inkscape:cy="31.5"
     inkscape:window-x="41"
     inkscape:window-y="24"
     inkscape:window-maximized="1"
     inkscape:current-layer="svg2" /><path
     d="m 13.038051,86.85625 71.1,-81.7 c 1.1,-1.3 1,-3.3 -0.3,-4.4 -1.3,-1.1 -3.3,-1 -4.4,0.3 l -17.7,20.4 c -5.4,-2.2 -10.8,-3.3 -16.4,-3.3 -25.9,0 -44.0000005,24.2 -44.70000048,25.2 -0.9,1.1 -0.8,2.6 0,3.7 6.99999998,8.7 14.40000048,15.1 21.90000048,19.3 l -14.2000005,16.4 c -1.1,1.3 -1,3.3 0.3,4.4 0.6,0.5 1.3,0.8 2.0000005,0.8 0.9,-0.1 1.8,-0.4 2.4,-1.1 z m 23.9,-37 c -0.8,-1.4 -1.3,-3 -1.3,-4.7 0,-5 4.1,-9.1 9.1,-9.1 1.3,0 2.5,0.3 3.6,0.7 l -11.4,13.1 z m -29.8000005,-4.8 c 4.6000005,-5.4 19.3000005,-20.8 38.2000005,-20.8 4.1,0 8.1,0.7 12,2.1 l -4.8,5.6 c -2.3,-1.4 -4.9,-2.1 -7.8,-2.1 -8.4,0 -15.3,6.9 -15.3,15.3 0,3.6 1.3,6.9 3.3,9.5 l -6,6.9 c -6.7,-3.5 -13.2,-9 -19.6000005,-16.5 z m 81.7000005,-1.9 c 0.9,1.1 0.9,2.7 0.1,3.8 -0.8,1 -18.8,25.2 -44.7,25.2 -3.1,0 -6.2,-0.4 -9.2,-1.1 l 4.8,-5.5 c 1.5,0.2 3,0.3 4.5,0.3 18.7,0.1 33.4,-15.3 38,-20.7 -4.5,-5.3 -9.1,-9.5 -13.7,-12.8 l 4.1,-4.7 c 5.5,4 10.9,9.1 16.1,15.5 z"
     id="path4"
     inkscape:connector-curvature="0" /></svg>